<svg width="496" height="155" viewBox="0 0 496 155" fill="none" xmlns="http://www.w3.org/2000/svg">
<path d="M21.7841 93L1.80682 23.1818H17.9318L29.4886 71.6932H30.0682L42.8182 23.1818H56.625L69.3409 71.7955H69.9545L81.5114 23.1818H97.6364L77.6591 93H63.2727L49.9773 47.3523H49.4318L36.1705 93H21.7841ZM89.6969 93V23.1818H136.742V35.3523H104.458V51.9886H134.322V64.1591H104.458V80.8295H136.879V93H89.6969ZM170.513 43.2614C170.24 40.5114 169.07 38.375 167.002 36.8523C164.934 35.3295 162.127 34.5682 158.581 34.5682C156.172 34.5682 154.138 34.9091 152.479 35.5909C150.82 36.25 149.547 37.1705 148.661 38.3523C147.797 39.5341 147.365 40.875 147.365 42.375C147.32 43.625 147.581 44.7159 148.15 45.6477C148.74 46.5795 149.547 47.3864 150.57 48.0682C151.593 48.7273 152.775 49.3068 154.115 49.8068C155.456 50.2841 156.888 50.6932 158.411 51.0341L164.684 52.5341C167.729 53.2159 170.525 54.125 173.07 55.2614C175.615 56.3977 177.82 57.7955 179.684 59.4545C181.547 61.1136 182.99 63.0682 184.013 65.3182C185.059 67.5682 185.593 70.1477 185.615 73.0568C185.593 77.3295 184.502 81.0341 182.343 84.1705C180.206 87.2841 177.115 89.7045 173.07 91.4318C169.047 93.1364 164.195 93.9886 158.513 93.9886C152.877 93.9886 147.968 93.125 143.786 91.3977C139.627 89.6705 136.377 87.1136 134.036 83.7273C131.718 80.3182 130.502 76.1023 130.388 71.0795H144.672C144.831 73.4205 145.502 75.375 146.684 76.9432C147.888 78.4886 149.49 79.6591 151.49 80.4545C153.513 81.2273 155.797 81.6136 158.343 81.6136C160.843 81.6136 163.013 81.25 164.854 80.5227C166.718 79.7955 168.161 78.7841 169.184 77.4886C170.206 76.1932 170.718 74.7045 170.718 73.0227C170.718 71.4545 170.252 70.1364 169.32 69.0682C168.411 68 167.07 67.0909 165.297 66.3409C163.547 65.5909 161.4 64.9091 158.854 64.2955L151.252 62.3864C145.365 60.9545 140.718 58.7159 137.309 55.6705C133.9 52.625 132.206 48.5227 132.229 43.3636C132.206 39.1364 133.331 35.4432 135.604 32.2841C137.9 29.125 141.047 26.6591 145.047 24.8864C149.047 23.1136 153.593 22.2273 158.684 22.2273C163.865 22.2273 168.388 23.1136 172.252 24.8864C176.138 26.6591 179.161 29.125 181.32 32.2841C183.479 35.4432 184.593 39.1023 184.661 43.2614H170.513ZM177.045 35.3523V23.1818H234.386V35.3523H213.011V93H198.42V35.3523H177.045ZM286.404 47.625H271.472C271.2 45.6932 270.643 43.9773 269.802 42.4773C268.961 40.9545 267.881 39.6591 266.563 38.5909C265.245 37.5227 263.722 36.7045 261.995 36.1364C260.291 35.5682 258.438 35.2841 256.438 35.2841C252.825 35.2841 249.677 36.1818 246.995 37.9773C244.313 39.75 242.234 42.3409 240.756 45.75C239.279 49.1364 238.541 53.25 238.541 58.0909C238.541 63.0682 239.279 67.25 240.756 70.6364C242.256 74.0227 244.347 76.5795 247.029 78.3068C249.711 80.0341 252.813 80.8977 256.336 80.8977C258.313 80.8977 260.143 80.6364 261.825 80.1136C263.529 79.5909 265.041 78.8295 266.359 77.8295C267.677 76.8068 268.768 75.5682 269.631 74.1136C270.518 72.6591 271.131 71 271.472 69.1364L286.404 69.2045C286.018 72.4091 285.052 75.5 283.506 78.4773C281.984 81.4318 279.927 84.0795 277.336 86.4205C274.768 88.7386 271.7 90.5795 268.131 91.9432C264.586 93.2841 260.575 93.9545 256.097 93.9545C249.87 93.9545 244.302 92.5455 239.393 89.7273C234.506 86.9091 230.643 82.8295 227.802 77.4886C224.984 72.1477 223.575 65.6818 223.575 58.0909C223.575 50.4773 225.006 44 227.87 38.6591C230.734 33.3182 234.62 29.25 239.529 26.4545C244.438 23.6364 249.961 22.2273 256.097 22.2273C260.143 22.2273 263.893 22.7955 267.347 23.9318C270.825 25.0682 273.904 26.7273 276.586 28.9091C279.268 31.0682 281.45 33.7159 283.131 36.8523C284.836 39.9886 285.927 43.5795 286.404 47.625ZM345.309 58.0909C345.309 65.7045 343.865 72.1818 340.979 77.5227C338.115 82.8636 334.206 86.9432 329.252 89.7614C324.32 92.5568 318.774 93.9545 312.615 93.9545C306.411 93.9545 300.843 92.5455 295.911 89.7273C290.979 86.9091 287.081 82.8295 284.218 77.4886C281.354 72.1477 279.922 65.6818 279.922 58.0909C279.922 50.4773 281.354 44 284.218 38.6591C287.081 33.3182 290.979 29.25 295.911 26.4545C300.843 23.6364 306.411 22.2273 312.615 22.2273C318.774 22.2273 324.32 23.6364 329.252 26.4545C334.206 29.25 338.115 33.3182 340.979 38.6591C343.865 44 345.309 50.4773 345.309 58.0909ZM330.343 58.0909C330.343 53.1591 329.604 49 328.127 45.6136C326.672 42.2273 324.615 39.6591 321.956 37.9091C319.297 36.1591 316.184 35.2841 312.615 35.2841C309.047 35.2841 305.934 36.1591 303.274 37.9091C300.615 39.6591 298.547 42.2273 297.07 45.6136C295.615 49 294.888 53.1591 294.888 58.0909C294.888 63.0227 295.615 67.1818 297.07 70.5682C298.547 73.9545 300.615 76.5227 303.274 78.2727C305.934 80.0227 309.047 80.8977 312.615 80.8977C316.184 80.8977 319.297 80.0227 321.956 78.2727C324.615 76.5227 326.672 73.9545 328.127 70.5682C329.604 67.1818 330.343 63.0227 330.343 58.0909ZM348.5 93H332.682L356.784 23.1818H375.807L399.875 93H384.057L366.568 39.1364H366.022L348.5 93ZM347.511 65.5568H384.875V77.0795H347.511V65.5568ZM428.719 43.2614C428.447 40.5114 427.276 38.375 425.208 36.8523C423.14 35.3295 420.333 34.5682 416.788 34.5682C414.379 34.5682 412.344 34.9091 410.685 35.5909C409.026 36.25 407.754 37.1705 406.867 38.3523C406.004 39.5341 405.572 40.875 405.572 42.375C405.526 43.625 405.788 44.7159 406.356 45.6477C406.947 46.5795 407.754 47.3864 408.776 48.0682C409.799 48.7273 410.981 49.3068 412.322 49.8068C413.663 50.2841 415.094 50.6932 416.617 51.0341L422.89 52.5341C425.935 53.2159 428.731 54.125 431.276 55.2614C433.822 56.3977 436.026 57.7955 437.89 59.4545C439.754 61.1136 441.197 63.0682 442.219 65.3182C443.265 67.5682 443.799 70.1477 443.822 73.0568C443.799 77.3295 442.708 81.0341 440.549 84.1705C438.413 87.2841 435.322 89.7045 431.276 91.4318C427.254 93.1364 422.401 93.9886 416.719 93.9886C411.083 93.9886 406.174 93.125 401.992 91.3977C397.833 89.6705 394.583 87.1136 392.242 83.7273C389.924 80.3182 388.708 76.1023 388.594 71.0795H402.879C403.038 73.4205 403.708 75.375 404.89 76.9432C406.094 78.4886 407.697 79.6591 409.697 80.4545C411.719 81.2273 414.004 81.6136 416.549 81.6136C419.049 81.6136 421.219 81.25 423.06 80.5227C424.924 79.7955 426.367 78.7841 427.39 77.4886C428.413 76.1932 428.924 74.7045 428.924 73.0227C428.924 71.4545 428.458 70.1364 427.526 69.0682C426.617 68 425.276 67.0909 423.504 66.3409C421.754 65.5909 419.606 64.9091 417.06 64.2955L409.458 62.3864C403.572 60.9545 398.924 58.7159 395.515 55.6705C392.106 52.625 390.413 48.5227 390.435 43.3636C390.413 39.1364 391.538 35.4432 393.81 32.2841C396.106 29.125 399.254 26.6591 403.254 24.8864C407.254 23.1136 411.799 22.2273 416.89 22.2273C422.072 22.2273 426.594 23.1136 430.458 24.8864C434.344 26.6591 437.367 29.125 439.526 32.2841C441.685 35.4432 442.799 39.1023 442.867 43.2614H428.719ZM435.252 35.3523V23.1818H492.592V35.3523H471.217V93H456.627V35.3523H435.252Z" fill="white"/>
<path d="M39.1818 140V93.4545H66.1818V97.2727H43.4318V114.795H64.75V118.614H43.4318V136.182H66.6364V140H39.1818ZM98.4982 140H84.8618V93.4545H99.3164C103.756 93.4545 107.551 94.3788 110.703 96.2273C113.869 98.0758 116.294 100.727 117.975 104.182C119.657 107.636 120.498 111.78 120.498 116.614C120.498 121.492 119.635 125.682 117.907 129.182C116.195 132.667 113.695 135.341 110.407 137.205C107.135 139.068 103.165 140 98.4982 140ZM89.1118 136.182H98.2482C102.248 136.182 105.597 135.394 108.294 133.818C110.991 132.242 113.013 129.992 114.362 127.068C115.71 124.144 116.385 120.659 116.385 116.614C116.369 112.598 115.703 109.144 114.385 106.25C113.082 103.356 111.142 101.136 108.566 99.5909C106.006 98.0455 102.839 97.2727 99.0664 97.2727H89.1118V136.182ZM169.502 93.4545H173.752V124.273C173.752 127.439 173.01 130.273 171.525 132.773C170.04 135.258 167.972 137.22 165.32 138.659C162.684 140.083 159.616 140.795 156.116 140.795C152.631 140.795 149.563 140.076 146.911 138.636C144.26 137.197 142.191 135.235 140.707 132.75C139.222 130.265 138.479 127.439 138.479 124.273V93.4545H142.729V123.977C142.729 126.447 143.282 128.652 144.388 130.591C145.494 132.515 147.048 134.03 149.048 135.136C151.063 136.242 153.419 136.795 156.116 136.795C158.813 136.795 161.169 136.242 163.184 135.136C165.199 134.03 166.752 132.515 167.843 130.591C168.949 128.652 169.502 126.447 169.502 123.977V93.4545ZM230.239 108H225.966C225.648 106.409 225.072 104.939 224.239 103.591C223.421 102.227 222.39 101.038 221.148 100.023C219.906 99.0076 218.496 98.2197 216.921 97.6591C215.345 97.0985 213.64 96.8182 211.807 96.8182C208.868 96.8182 206.186 97.5833 203.762 99.1136C201.352 100.644 199.421 102.894 197.966 105.864C196.527 108.818 195.807 112.439 195.807 116.727C195.807 121.045 196.527 124.682 197.966 127.636C199.421 130.591 201.352 132.833 203.762 134.364C206.186 135.879 208.868 136.636 211.807 136.636C213.64 136.636 215.345 136.356 216.921 135.795C218.496 135.235 219.906 134.455 221.148 133.455C222.39 132.439 223.421 131.25 224.239 129.886C225.072 128.523 225.648 127.045 225.966 125.455H230.239C229.86 127.591 229.148 129.583 228.102 131.432C227.072 133.265 225.754 134.871 224.148 136.25C222.557 137.629 220.724 138.705 218.648 139.477C216.572 140.25 214.292 140.636 211.807 140.636C207.898 140.636 204.428 139.659 201.398 137.705C198.368 135.735 195.989 132.962 194.262 129.386C192.549 125.811 191.693 121.591 191.693 116.727C191.693 111.864 192.549 107.644 194.262 104.068C195.989 100.492 198.368 97.7273 201.398 95.7727C204.428 93.803 207.898 92.8182 211.807 92.8182C214.292 92.8182 216.572 93.2045 218.648 93.9773C220.724 94.7348 222.557 95.8106 224.148 97.2045C225.754 98.5833 227.072 100.189 228.102 102.023C229.148 103.856 229.86 105.848 230.239 108ZM247.97 140H243.515L260.447 93.4545H264.993L281.925 140H277.47L262.879 98.9773H262.561L247.97 140ZM251.175 122.159H274.265V125.977H251.175V122.159ZM289.326 97.2727V93.4545H323.076V97.2727H308.326V140H304.076V97.2727H289.326ZM344.574 93.4545V140H340.324V93.4545H344.574ZM402.788 116.727C402.788 121.576 401.925 125.795 400.198 129.386C398.47 132.962 396.091 135.735 393.061 137.705C390.046 139.659 386.576 140.636 382.652 140.636C378.728 140.636 375.251 139.659 372.22 137.705C369.205 135.735 366.834 132.962 365.107 129.386C363.394 125.795 362.538 121.576 362.538 116.727C362.538 111.879 363.394 107.667 365.107 104.091C366.834 100.5 369.213 97.7273 372.243 95.7727C375.273 93.803 378.743 92.8182 382.652 92.8182C386.576 92.8182 390.046 93.803 393.061 95.7727C396.091 97.7273 398.47 100.5 400.198 104.091C401.925 107.667 402.788 111.879 402.788 116.727ZM398.652 116.727C398.652 112.561 397.955 108.992 396.561 106.023C395.167 103.038 393.266 100.758 390.857 99.1818C388.448 97.6061 385.713 96.8182 382.652 96.8182C379.607 96.8182 376.879 97.6061 374.47 99.1818C372.061 100.758 370.152 103.03 368.743 106C367.349 108.97 366.652 112.545 366.652 116.727C366.652 120.894 367.349 124.462 368.743 127.432C370.137 130.402 372.038 132.682 374.448 134.273C376.857 135.848 379.591 136.636 382.652 136.636C385.713 136.636 388.448 135.848 390.857 134.273C393.281 132.697 395.19 130.424 396.584 127.455C397.978 124.47 398.667 120.894 398.652 116.727ZM456.997 93.4545V140H452.86L425.36 101.023H424.997V140H420.747V93.4545H424.86L452.451 132.477H452.815V93.4545H456.997Z" fill="white"/>
<path d="M16 91.5H478" stroke="#16E6E6" stroke-width="5" stroke-linecap="round"/>
</svg>
